<?xml version="1.0" standalone="no"?>
<!DOCTYPE svg PUBLIC "-//W3C//DTD SVG 20010904//EN"
 "http://www.w3.org/TR/2001/REC-SVG-20010904/DTD/svg10.dtd">
<svg version="1.0" xmlns="http://www.w3.org/2000/svg"
 width="700.000000pt" height="700.000000pt" viewBox="0 0 700.000000 700.000000"
 preserveAspectRatio="xMidYMid meet">
<metadata>
Created by potrace 1.11, written by Peter Selinger 2001-2013
</metadata>
<g transform="translate(0.000000,700.000000) scale(0.100000,-0.100000)"
fill="#000000" stroke="none">
<path d="M858 6944 c-2 -5 -4 -190 -4 -411 1 -222 -1 -403 -5 -403 -3 0 -9 3
-13 8 -7 6 -34 11 -78 13 -24 1 -33 18 -18 32 10 9 12 8 7 -5 -4 -11 -1 -16
11 -16 9 0 25 -3 35 -7 10 -4 17 -3 17 4 0 6 -7 11 -15 11 -8 0 -14 4 -13 9 4
12 -274 291 -290 291 -10 0 -10 -5 -2 -20 6 -11 7 -20 3 -20 -4 0 -9 -12 -10
-27 -1 -29 -2 -30 35 24 7 10 5 3 -3 -14 -10 -20 -11 -33 -5 -33 6 0 15 10 20
23 6 15 9 17 9 6 1 -20 -20 -39 -40 -36 -8 2 -40 28 -72 60 -32 31 -59 57 -60
57 -1 0 -2 -156 -2 -346 0 -324 -4 -394 -21 -351 -3 9 -12 17 -20 17 -8 0 -14
7 -14 15 0 9 -16 25 -35 36 -19 12 -35 23 -35 26 0 2 6 1 13 -3 6 -4 3 2 -7
14 -23 26 -28 28 -19 5 4 -11 3 -14 -5 -9 -7 4 -12 14 -12 22 0 17 -44 64 -60
64 -6 0 -9 -4 -6 -8 2 -4 0 -14 -5 -22 -7 -12 -8 -11 -6 5 1 11 5 25 9 30 3 6
0 15 -7 22 -10 9 -13 3 -13 -30 0 -23 0 -49 -1 -57 -1 -8 -25 10 -61 45 l-60
59 0 -3012 0 -3012 3045 0 c2417 0 3045 3 3045 13 0 8 3 9 8 1 4 -6 15 -11 25
-11 15 0 13 5 -10 26 -15 14 -31 25 -35 23 -5 -1 -8 5 -8 13 0 9 -13 24 -30
33 -16 9 -30 22 -30 29 0 19 -35 34 -48 21 -15 -15 -16 -52 -2 -43 6 3 10 1
10 -5 0 -18 -25 -6 -28 14 -2 10 4 26 13 36 16 18 16 20 -7 45 -13 14 -40 33
-59 43 -21 10 -35 26 -37 40 -4 30 -36 47 -52 27 -6 -8 -9 -18 -6 -23 3 -6 -1
-15 -9 -22 -12 -10 -13 -8 -10 10 2 13 12 31 21 41 15 17 14 21 -30 66 -25 26
-46 45 -46 41 0 -4 10 -17 23 -29 13 -13 16 -20 7 -17 -8 2 -22 18 -30 34 -10
19 -21 29 -30 26 -11 -3 -12 -2 -4 7 8 9 117 13 417 14 357 1 405 3 394 16
-34 41 -83 86 -91 83 -5 -2 -16 0 -24 3 -11 4 -12 8 -3 19 9 11 7 14 -11 15
-43 1 -58 4 -58 14 0 5 6 7 13 4 6 -3 20 -8 30 -12 10 -4 17 -3 17 4 0 6 -6
11 -14 11 -7 0 -16 9 -19 21 -3 12 -10 18 -16 15 -5 -4 -12 3 -16 13 -4 12
-12 18 -21 14 -10 -4 -12 0 -7 13 7 18 6 18 -20 1 -33 -21 -50 -23 -19 -1 17
12 20 19 12 34 -5 10 -19 22 -30 25 -11 3 -20 13 -20 20 0 21 -28 7 -36 -17
-3 -11 -8 -17 -11 -14 -3 3 1 16 9 28 14 22 14 53 0 44 -4 -2 -18 11 -32 29
-24 33 -41 38 -67 22 -17 -11 -33 0 -32 21 1 15 2 15 6 -1 7 -27 19 -20 17 11
l-2 27 415 0 c228 0 417 4 420 9 3 4 -1 12 -8 17 -11 7 -12 9 -1 9 8 0 16 -9
19 -20 4 -15 9 -17 23 -10 9 5 20 6 24 3 3 -4 17 -7 30 -8 25 -1 25 6 -2 38
-16 18 -38 24 -27 8 3 -6 -4 -15 -16 -21 -12 -7 -19 -8 -15 -2 3 6 0 13 -6 16
-7 3 -4 4 7 1 15 -4 21 0 22 15 1 11 -2 18 -8 15 -5 -4 -9 -2 -9 4 0 16 -93
106 -112 107 -18 1 -20 -19 -4 -44 5 -8 3 -18 -4 -25 -10 -9 -12 -8 -7 5 3 10
2 20 -3 23 -6 4 -10 1 -10 -6 0 -7 -3 -10 -6 -6 -3 3 -2 12 2 19 5 7 9 20 9
28 0 8 6 14 13 12 19 -3 14 9 -14 35 -14 13 -30 20 -36 17 -7 -5 -8 -2 -4 5 8
13 -97 121 -117 121 -6 0 -7 3 -4 7 9 9 -43 63 -60 63 -8 0 -11 5 -7 12 5 7 2
9 -9 5 -10 -4 -14 -2 -11 6 6 18 -41 61 -57 52 -7 -5 -10 -4 -5 3 9 16 -239
266 -255 256 -8 -4 -10 -3 -5 5 9 14 -153 183 -166 175 -4 -3 -8 2 -8 10 0 19
-11 21 -28 4 -7 -7 -12 -8 -12 -3 0 5 -7 0 -15 -11 -8 -10 -14 -14 -15 -9 0
18 18 38 28 31 6 -3 14 -1 17 5 4 6 -38 56 -99 117 -86 85 -109 103 -117 92
-8 -11 -9 -9 -4 7 8 27 -2 30 -22 6 -13 -16 -13 -15 -2 6 10 22 6 29 -65 97
-41 41 -78 74 -80 74 -3 0 -3 -8 0 -17 5 -17 5 -17 -6 0 -6 9 -15 15 -21 12
-5 -4 -9 -1 -9 5 0 7 7 10 15 6 26 -9 17 9 -21 43 -28 26 -38 30 -50 21 -8 -7
-14 -17 -14 -22 0 -6 7 -5 15 2 9 7 15 8 15 2 0 -5 -7 -13 -16 -16 -13 -5 -14
-9 -4 -21 7 -9 10 -18 6 -22 -3 -3 -6 -1 -6 6 0 7 -4 10 -8 7 -10 -6 -10 45 1
61 4 6 4 13 0 16 -5 2 -2 2 5 1 24 -6 10 12 -67 89 -51 50 -84 76 -92 71 -9
-5 -7 -11 6 -20 10 -8 17 -16 14 -18 -2 -2 -13 2 -23 10 -16 11 -17 16 -6 29
11 13 0 28 -73 100 -64 65 -89 84 -103 79 -15 -5 -16 -4 -4 4 12 9 -15 41
-140 166 -85 86 -160 154 -166 152 -6 -3 -11 3 -10 11 0 9 -5 18 -11 20 -7 3
-13 0 -13 -7 0 -6 4 -9 9 -6 5 4 7 -4 3 -16 l-5 -22 -9 24 c-5 14 -4 28 3 36
6 8 7 14 2 14 -5 0 -23 13 -39 30 -31 31 -44 37 -44 19 0 -5 4 -7 10 -4 6 4 7
-1 3 -11 -5 -13 -3 -15 7 -9 9 6 11 4 5 -5 -6 -10 -4 -12 11 -6 16 6 17 5 6
-6 -11 -11 -17 -9 -33 11 -11 13 -17 31 -14 40 3 11 -103 123 -350 370 -195
195 -355 357 -355 360 0 9 -43 36 -52 33 -5 -1 -8 5 -8 13 0 7 -8 19 -17 24
-10 6 -14 11 -10 11 5 0 -5 11 -21 25 -30 25 -52 32 -52 17 0 -5 -7 -17 -16
-28 -9 -11 -8 -4 4 18 l20 37 -56 53 c-31 29 -54 53 -52 54 9 2 -58 54 -70 54
-6 0 -8 5 -5 10 3 6 -1 10 -9 10 -9 0 -15 3 -15 8 5 28 -1 35 -18 20 -26 -22
-47 -33 -39 -20 3 5 0 13 -6 16 -7 3 -3 3 9 1 12 -3 24 -1 28 5 7 12 -27 50
-45 50 -5 0 -9 3 -9 8 3 16 -1 35 -7 30 -3 -3 -22 12 -43 34 -37 41 -38 41
-64 23 -15 -9 -27 -13 -27 -9 0 5 -5 2 -10 -6 -5 -8 -10 -10 -10 -4 0 6 12 21
27 35 17 15 22 17 13 5 -13 -17 -13 -19 0 -14 19 6 26 38 8 39 -7 0 -31 22
-53 48 -27 33 -44 45 -52 39 -8 -7 -10 -3 -6 14 4 18 3 20 -6 8 -9 -13 -11
-13 -11 3 0 18 -15 23 -24 8 -4 -5 0 -12 6 -14 9 -4 10 -6 1 -6 -6 -1 -19 9
-27 21 -9 12 -17 19 -17 15 -1 -4 -2 -12 -3 -19 0 -6 -8 -13 -16 -15 -13 -4
-13 -3 0 6 8 6 12 11 7 11 -4 0 0 11 9 25 16 25 16 26 -32 79 -27 30 -57 54
-67 55 -10 1 -16 5 -13 9 3 5 -14 27 -37 49 -45 43 -83 63 -74 40 10 -25 -8
-38 -22 -16 -7 12 -8 18 -3 15 6 -3 12 1 16 9 3 9 12 12 23 8 15 -6 16 -5 3 9
-13 13 -18 14 -35 2 -23 -17 -35 -18 -35 -3 0 5 4 8 8 5 4 -2 14 -1 22 4 12 7
11 12 -4 28 -22 26 -60 37 -52 16 4 -10 2 -12 -6 -8 -8 5 -9 2 -5 -9 9 -24 0
-21 -14 4 -6 12 -7 19 -1 15 5 -3 12 1 16 9 3 9 12 12 23 9 10 -3 3 4 -14 16
-18 12 -33 27 -33 34 0 6 -9 17 -21 24 -19 12 -20 11 -15 -10 3 -13 3 -17 0
-10 -5 10 -9 10 -21 0 -23 -19 -39 -18 -40 4 -2 19 -1 19 11 3 12 -17 14 -16
29 6 19 26 21 39 8 39 -5 0 -11 -10 -14 -22 -4 -12 -9 -19 -12 -16 -4 3 -2 15
4 26 9 17 6 24 -19 46 -17 13 -30 29 -30 35 0 17 -15 13 -35 -9 -10 -11 -13
-20 -8 -20 6 0 16 -13 23 -30 12 -29 33 -42 28 -18 -2 6 5 14 15 16 9 2 17 -1
17 -7 0 -6 -7 -8 -15 -4 -10 3 -15 1 -13 -7 6 -27 -22 -20 -37 10 -9 18 -21
28 -27 24 -7 -5 -8 -2 -3 6 6 9 4 12 -6 8 -11 -4 -15 1 -15 22 1 16 5 32 9 36
5 5 6 -4 3 -19 -3 -19 -1 -27 7 -24 7 2 11 13 9 23 -2 14 -1 16 6 5 6 -8 12
-9 16 -3 3 6 -4 18 -16 26 -17 12 -25 13 -37 3 -9 -7 -8 -2 3 11 11 12 15 23
10 23 -52 8 -64 4 -59 -16 5 -18 5 -18 -5 -2 -6 9 -9 21 -5 26 3 5 1 12 -4 15
-5 4 -12 -3 -16 -14 -7 -23 -22 -27 -22 -5 0 8 2 13 5 10 2 -2 13 6 23 18 13
14 18 17 17 7 -2 -8 3 -14 10 -12 8 1 11 -2 7 -8 -3 -5 -1 -10 4 -10 19 0 12
25 -10 38 -17 11 -24 11 -37 0 -15 -11 -14 -10 1 8 16 20 16 21 -8 34 -14 7
-25 17 -25 21 0 13 -105 109 -120 109 -13 0 -13 1 0 10 12 8 12 10 1 10 -8 0
-27 16 -44 35 -21 25 -35 34 -48 30 -11 -4 -19 -2 -19 5 0 6 5 8 10 5 6 -3 10
-2 10 4 0 20 -20 21 -40 1 -15 -15 -16 -20 -6 -20 12 0 28 -26 31 -50 0 -3 4
-12 10 -20 8 -13 7 -13 -8 -1 -9 7 -14 17 -11 22 3 5 -7 20 -21 33 -20 19 -23
26 -13 33 7 4 19 16 26 25 12 15 11 17 -14 15 -15 -1 -29 4 -31 11 -3 6 0 12
7 12 6 0 8 -4 5 -10 -3 -5 1 -10 9 -10 25 0 18 12 -34 55 -26 22 -54 50 -61
63 -15 27 -30 28 -53 4 -15 -18 -15 -20 4 -37 11 -10 20 -25 19 -34 0 -13 -2
-12 -8 2 -4 10 -11 18 -16 18 -6 -1 -10 2 -10 7 0 4 -4 12 -7 18 -4 6 1 19 12
29 11 10 20 22 20 26 0 15 -42 48 -55 42 -8 -2 -19 6 -25 19 -11 22 -10 22 4
4 9 -11 19 -16 23 -13 4 4 -3 14 -15 23 -13 9 -34 27 -47 42 -21 23 -25 24
-31 9 -3 -9 -11 -17 -17 -17 -7 0 -7 4 1 12 7 7 12 18 12 26 0 16 -28 41 -45
42 -5 0 -3 -5 5 -10 12 -7 10 -9 -7 -7 -20 1 -21 3 -7 18 13 15 13 17 -1 22
-8 4 -21 5 -27 3 -7 -1 -10 -1 -5 1 4 3 7 9 7 13 0 15 -50 60 -65 60 -8 0 -15
5 -15 11 0 6 -9 22 -20 36 -11 14 -20 22 -20 17 0 -4 -6 1 -14 12 -14 18 -15
18 -21 2 -4 -10 -12 -18 -18 -18 -7 0 -7 4 1 12 18 18 14 46 -8 53 -11 3 -20
13 -20 21 0 8 -8 14 -18 14 -10 0 -23 5 -29 11 -8 8 -13 8 -17 0 -4 -6 -12
-11 -19 -11 -6 0 -2 6 9 14 12 9 23 11 29 5 5 -5 13 -9 18 -9 17 0 -46 44 -67
47 -11 2 -22 6 -25 10 -3 3 4 3 17 0 31 -7 27 4 -10 33 -39 31 -68 61 -68 71
0 4 -13 16 -30 26 -16 9 -30 21 -30 25 0 4 -23 30 -52 58 -34 33 -57 49 -67
45 -12 -5 -13 -3 -5 5 9 9 4 19 -17 41 -31 31 -48 36 -67 17 -7 -7 -12 -9 -12
-4 0 4 7 14 16 23 14 14 13 17 -5 34 -11 11 -24 19 -29 19 -5 0 -16 8 -23 17
-12 14 -12 16 1 9 8 -4 6 0 -5 8 -11 9 -25 14 -31 12 -7 -3 -10 2 -7 13 3 11
-5 22 -21 31 -14 7 -24 15 -22 18 2 2 -3 12 -12 22 -12 15 -19 17 -29 8 -10
-8 -12 -7 -8 4 4 9 -5 28 -20 44 -15 16 -24 24 -21 18 7 -13 -21 -40 -31 -31
-3 4 -11 3 -17 -3 -7 -5 -17 -5 -26 0 -11 7 -12 10 -2 10 7 0 10 5 7 10 -4 6
-11 8 -16 5 -5 -3 -6 1 -3 10 6 14 9 13 21 -5 13 -18 17 -19 31 -8 12 10 14
10 8 1 -4 -7 -3 -13 3 -13 21 0 20 20 -3 45 -13 14 -31 36 -40 48 -14 20 -15
20 -10 2 4 -11 -6 -1 -22 23 -16 23 -32 42 -37 42 -5 0 -16 9 -26 21 l-17 21
-1 -21 c-1 -13 2 -19 9 -15 8 5 9 1 4 -12 -17 -44 -15 -53 11 -51 14 1 28 -4
30 -10 3 -7 0 -13 -7 -13 -6 0 -8 5 -5 10 3 6 -1 10 -9 10 -19 0 -20 -11 -4
-30 7 -8 -22 18 -63 59 -42 40 -79 69 -81 65z m159 -66 c-3 -8 -6 -5 -6 6 -1
11 2 17 5 13 3 -3 4 -12 1 -19z m54 -65 c13 -15 12 -15 -7 -5 -16 8 -24 8 -34
-1 -12 -10 -12 -9 -1 6 17 21 25 21 42 0z m-19 -20 c-6 -2 -9 -10 -6 -15 4 -7
2 -8 -5 -4 -13 9 -5 26 12 25 9 0 8 -2 -1 -6z m58 -14 c0 -6 -4 -7 -10 -4 -5
3 -10 11 -10 16 0 6 5 7 10 4 6 -3 10 -11 10 -16z m73 -41 c5 -15 -10 -48 -21
-48 -4 0 -13 9 -20 21 -8 12 -9 18 -4 15 6 -3 12 1 16 9 7 18 23 20 29 3z
m-68 -18 c-3 -5 -1 -10 6 -10 7 0 10 -3 6 -6 -9 -9 -28 6 -22 17 4 5 8 9 11 9
3 0 2 -4 -1 -10z m109 -26 c3 -8 2 -12 -4 -9 -6 3 -10 10 -10 16 0 14 7 11 14
-7z m-24 -14 c0 -5 -4 -10 -10 -10 -5 0 -10 5 -10 10 0 6 5 10 10 10 6 0 10
-4 10 -10z m30 -21 c0 -6 7 -9 15 -5 27 10 16 -3 -16 -20 -21 -10 -29 -11 -23
-3 5 9 2 11 -9 6 -9 -3 -18 0 -21 8 -4 11 0 12 20 5 34 -13 39 -13 24 5 -9 10
-9 15 -1 15 6 0 11 -5 11 -11z m25 -67 c-11 -9 -15 -11 -8 -3 6 7 9 21 6 30
-5 13 -3 14 8 3 11 -10 10 -15 -6 -30z m-22 7 c-8 -8 -13 -7 -18 2 -5 8 -4 10
3 5 7 -4 12 -2 12 5 0 7 3 9 7 6 4 -4 2 -12 -4 -18z m74 -10 c2 -16 -1 -19 -9
-11 -5 5 -7 15 -4 21 10 15 12 14 13 -10z m-24 -40 c-6 -6 -15 -3 -24 8 -13
17 -13 17 5 3 18 -14 18 -13 12 10 -6 22 -5 23 5 7 7 -12 8 -22 2 -28z m42 11
c-3 -5 -1 -10 6 -10 7 0 4 -6 -6 -14 -27 -19 -40 -8 -19 15 18 20 29 25 19 9z
m65 -29 c3 -2 -3 -1 -12 2 -12 4 -18 -1 -21 -16 -3 -13 -4 -9 -4 10 1 32 5 32
37 4z m-54 -20 c0 -11 -5 -17 -13 -14 -10 4 -11 9 -2 19 15 18 15 18 15 -5z
m94 -36 c4 3 14 -3 21 -13 11 -14 11 -15 -1 -5 -10 9 -17 9 -26 2 -17 -14 -34
-3 -33 19 1 15 2 15 6 0 2 -10 8 -18 13 -18 4 0 7 8 5 18 -1 9 0 11 2 4 3 -7
8 -10 13 -7z m-60 -6 c0 -6 -4 -7 -10 -4 -5 3 -10 11 -10 16 0 6 5 7 10 4 6
-3 10 -11 10 -16z m28 -39 c7 -11 11 -20 9 -20 -2 0 -12 9 -22 20 -10 11 -14
20 -9 20 5 0 15 -9 22 -20z m48 -6 c-3 -7 3 -18 12 -23 9 -6 12 -11 5 -11 -6
0 -15 5 -18 10 -4 6 -12 7 -18 4 -8 -5 -8 -3 1 7 17 19 15 29 -5 23 -15 -5
-15 -4 -3 4 17 13 33 5 26 -14z m48 -2 c2 -4 -5 -9 -17 -9 -17 -2 -19 0 -7 7
18 12 18 12 24 2z m-923 -36 c5 3 9 0 9 -6 0 -15 -23 -7 -26 8 -1 7 0 8 3 2 2
-5 9 -8 14 -4z m924 -33 c-11 -10 -14 -11 -7 -3 19 22 14 35 -6 16 -18 -15
-20 -15 -38 6 -19 23 -19 23 1 6 16 -13 22 -14 32 -3 6 7 11 15 9 18 -2 2 4
-2 13 -9 14 -13 13 -16 -4 -31z m33 2 c-6 -14 -13 -23 -15 -21 -5 5 15 46 22
46 3 0 -1 -11 -7 -25z m-978 6 c0 -17 -21 -24 -33 -12 -9 9 -7 10 7 5 13 -5
17 -4 12 4 -4 7 -2 12 3 12 6 0 11 -4 11 -9z m55 -21 c4 -6 11 -7 17 -4 7 4 8
2 4 -4 -4 -7 -2 -12 5 -12 7 0 10 -3 6 -6 -3 -4 -18 3 -33 15 -15 11 -22 21
-16 21 6 0 14 -5 17 -10z m-35 -9 c0 -5 -7 -11 -14 -14 -10 -4 -13 -1 -9 9 6
15 23 19 23 5z m993 -15 c9 5 9 4 0 -6 -16 -17 -1 -45 35 -65 21 -12 22 -15 7
-13 -22 3 -67 56 -60 69 3 4 1 10 -5 14 -5 3 -10 12 -10 18 0 7 5 4 11 -6 6
-9 16 -14 22 -11z m14 18 c-3 -3 -12 -4 -19 -1 -8 3 -5 6 6 6 11 1 17 -2 13
-5z m-956 -46 c6 -12 6 -18 -1 -18 -5 0 -10 5 -10 12 0 6 -8 21 -17 32 -17 20
-17 20 0 7 10 -8 23 -23 28 -33z m909 10 c0 -12 -6 -9 -26 13 -19 22 -19 22 4
8 12 -8 22 -17 22 -21z m-931 -22 c-3 -3 -11 5 -18 17 -13 21 -12 21 5 5 10
-10 16 -20 13 -22z m1010 25 c9 -6 6 -8 -13 -8 -14 0 -23 3 -20 8 7 11 15 11
33 0z m-952 -7 c-3 -3 -12 -4 -19 -1 -8 3 -5 6 6 6 11 1 17 -2 13 -5z m963
-29 c9 -10 9 -15 1 -15 -6 0 -11 4 -11 9 0 5 -8 12 -17 14 -15 4 -15 5 -2 6 9
0 22 -6 29 -14z m-935 -5 c4 -6 11 -7 17 -4 7 4 8 2 4 -4 -4 -7 -2 -12 5 -12
7 0 10 -3 6 -6 -3 -4 -18 3 -33 15 -15 11 -22 21 -16 21 6 0 14 -5 17 -10z
m-35 -8 c0 -4 -10 -9 -22 -9 -18 -2 -20 0 -8 7 18 12 30 13 30 2z m1019 -37
c0 -5 -6 -1 -14 9 -8 11 -15 24 -15 30 0 5 7 1 15 -10 8 -10 14 -23 14 -29z
m-969 -10 c0 -7 -8 -16 -17 -19 -10 -4 -14 -4 -10 0 4 4 -1 17 -10 28 -18 21
-18 21 5 2 26 -23 29 -11 5 18 -18 21 -18 21 5 2 12 -11 22 -25 22 -31z m933
5 c-3 -12 -8 -19 -11 -16 -5 6 5 36 12 36 2 0 2 -9 -1 -20z m-906 -18 l-22
-24 24 -19 c13 -10 19 -19 14 -19 -6 0 -18 9 -28 20 -17 19 -17 21 -1 39 13
15 14 20 4 24 -7 3 -3 4 9 4 l23 -1 -23 -24z m987 -1 c-4 -3 -9 0 -11 7 -3 6
-10 9 -15 6 -7 -4 -8 -2 -4 5 6 9 11 9 22 0 8 -6 12 -15 8 -18z m-59 9 c3 -5
1 -10 -4 -10 -6 0 -11 5 -11 10 0 6 2 10 4 10 3 0 8 -4 11 -10z m41 -24 c3 -8
1 -22 -4 -31 -8 -16 -9 -16 -15 -1 -4 10 -3 15 3 11 6 -3 10 1 10 10 0 9 -4
13 -10 10 -5 -3 -10 -1 -10 4 0 16 20 13 26 -3z m26 -29 c-7 -8 -7 -18 -2 -27
6 -8 10 -19 9 -25 0 -5 -6 1 -14 15 -12 23 -6 50 12 50 3 0 1 -6 -5 -13z m33
-7 c-3 -5 -11 -10 -16 -10 -6 0 -7 5 -4 10 3 6 11 10 16 10 6 0 7 -4 4 -10z
m-972 -13 c7 4 5 -2 -3 -13 -8 -10 -15 -20 -16 -22 -1 -2 -1 10 -1 25 0 15 2
22 4 15 3 -6 10 -9 16 -5z m47 -11 c0 -8 6 -17 13 -19 9 -4 9 -6 0 -6 -7 -1
-17 8 -23 19 -7 14 -7 20 0 20 5 0 10 -6 10 -14z m-24 -15 c-4 -5 -1 -11 6
-13 8 -3 7 -6 -3 -10 -10 -4 -15 1 -16 13 -1 10 3 19 8 19 6 0 8 -4 5 -9z
m994 -33 c0 -4 8 -5 18 -1 14 5 15 4 4 -8 -11 -12 -16 -10 -32 11 -11 14 -20
30 -19 35 0 6 6 1 14 -9 8 -11 15 -23 15 -28z m-34 4 c1 -7 0 -8 -3 -2 -2 5
-9 8 -14 4 -5 -3 -9 0 -9 6 0 15 23 7 26 -8z m-921 -2 c3 -5 1 -10 -4 -10 -6
0 -11 5 -11 10 0 6 2 10 4 10 3 0 8 -4 11 -10z m-4 -25 c5 4 9 1 9 -4 0 -6 -4
-11 -8 -11 -12 0 -32 22 -32 35 0 5 5 2 11 -8 6 -9 14 -15 20 -12z m1011 8
c-6 -2 -10 -8 -8 -12 3 -4 -5 -8 -16 -8 -20 -2 -20 -1 -2 12 11 8 24 14 29 14
6 0 4 -3 -3 -6z m-57 -13 c3 -6 -1 -7 -9 -4 -18 7 -21 14 -7 14 6 0 13 -4 16
-10z m54 -48 c-5 -2 -6 -9 -2 -15 3 -7 2 -9 -2 -4 -5 4 -10 17 -12 28 -2 16
-1 18 11 7 8 -7 10 -15 5 -16z m41 13 c0 -8 -4 -15 -10 -15 -5 0 -7 7 -4 15 4
8 8 15 10 15 2 0 4 -7 4 -15z m26 -14 c-4 -5 -1 -11 6 -13 8 -3 8 -9 -1 -24
-10 -14 -11 -15 -7 -2 3 10 1 20 -4 23 -5 3 -11 -4 -15 -15 -3 -11 -11 -20
-16 -20 -6 0 -1 14 11 30 19 27 40 44 26 21z m-1733 -56 c7 -18 -6 -27 -27
-19 -12 5 -15 2 -10 -10 3 -9 11 -13 17 -9 6 4 7 1 2 -7 -6 -10 -11 -9 -21 5
-17 23 -8 37 19 30 21 -6 22 -6 3 9 -16 13 -17 16 -4 16 9 0 18 -7 21 -15z
m1777 -21 c0 -8 4 -14 9 -14 5 0 8 8 6 18 -1 9 0 11 2 4 3 -7 10 -9 16 -6 7 4
5 -1 -5 -11 -17 -19 -38 -13 -38 11 0 8 -4 14 -10 14 -5 0 -10 5 -10 11 0 8 5
8 15 -1 8 -7 15 -19 15 -26z m-40 6 c8 -5 12 -11 10 -14 -3 -2 -14 2 -24 10
-22 15 -10 19 14 4z m-1728 -36 c-3 -19 -1 -25 7 -20 6 4 8 12 5 18 -4 7 -2 8
4 4 12 -7 5 -36 -9 -36 -13 0 -22 27 -15 45 9 24 14 17 8 -11z m1816 2 c-7 -8
-15 -12 -17 -11 -5 6 10 25 20 25 5 0 4 -6 -3 -14z m-24 -35 c-4 -3 -9 0 -11
7 -3 6 -10 9 -15 6 -7 -4 -8 -2 -4 5 6 9 11 9 22 0 8 -6 12 -15 8 -18z m-1714
-6 c0 -2 -7 -1 -17 2 -11 4 -14 3 -9 -5 5 -8 1 -10 -10 -5 -11 4 -13 8 -6 11
7 2 9 8 6 14 -4 6 2 5 15 -1 11 -7 21 -14 21 -16z m1764 -5 c-13 -25 -18 -28
-34 -18 -11 7 -16 15 -12 18 4 3 11 10 15 15 5 6 7 3 3 -7 -3 -10 -1 -20 4
-23 6 -4 10 0 10 7 0 12 18 38 26 38 1 0 -4 -13 -12 -30z m-1750 -15 c-10 -8
-23 -14 -29 -14 -5 0 -1 6 9 14 11 8 24 15 30 15 5 0 1 -7 -10 -15z m-49 -5
c3 -5 2 -10 -4 -10 -5 0 -13 5 -16 10 -3 6 -2 10 4 10 5 0 13 -4 16 -10z
m1847 -24 c7 4 8 2 4 -5 -6 -9 -11 -9 -22 0 -11 9 -14 8 -15 -2 0 -10 -2 -11
-6 -1 -2 6 -10 9 -15 6 -7 -4 -8 -2 -4 5 4 6 12 9 17 6 5 -4 9 0 9 7 0 8 5 6
11 -5 6 -9 15 -14 21 -11z m15 18 c-3 -3 -12 -4 -19 -1 -8 3 -5 6 6 6 11 1 17
-2 13 -5z m-1791 -19 c4 -8 10 -12 15 -9 5 3 9 0 9 -5 0 -17 -14 -13 -33 9 -9
11 -12 20 -7 20 6 0 13 -7 16 -15z m-43 -8 c-4 -6 1 -8 11 -4 9 4 15 3 11 -2
-3 -5 1 -12 7 -14 8 -4 9 -6 2 -6 -7 -1 -22 7 -34 17 -18 14 -19 19 -7 19 9 0
13 -5 10 -10z m1888 -42 c3 3 6 -2 6 -12 0 -13 -3 -12 -17 5 -10 12 -21 18
-24 14 -4 -3 -4 2 0 12 7 17 8 17 19 -3 6 -12 13 -19 16 -16z m-1793 18 c-10
-2 -18 -9 -18 -15 0 -6 -3 -9 -6 -5 -10 10 6 27 24 26 15 -1 15 -2 0 -6z
m1727 -3 c13 -6 15 -9 5 -9 -8 0 -22 4 -30 9 -18 12 -2 12 25 0z m-1770 -10
c-3 -5 -12 -10 -18 -10 -7 0 -6 4 3 10 19 12 23 12 15 0z m1792 -32 c-3 -8 -6
-5 -6 6 -1 11 2 17 5 13 3 -3 4 -12 1 -19z m-1777 -3 c0 -8 -2 -15 -4 -15 -2
0 -6 7 -10 15 -3 8 -1 15 4 15 6 0 10 -7 10 -15z m27 0 c0 -8 -4 -12 -9 -9 -4
3 -8 9 -8 15 0 5 4 9 8 9 5 0 9 -7 9 -15z m1778 5 c3 -5 1 -10 -4 -10 -6 0
-11 5 -11 10 0 6 2 10 4 10 3 0 8 -4 11 -10z m35 -20 c0 -5 -4 -10 -10 -10 -5
0 -10 5 -10 10 0 6 5 10 10 10 6 0 10 -4 10 -10z m23 -17 c-7 -2 -13 -9 -13
-14 0 -6 5 -7 10 -4 6 3 13 -1 16 -9 3 -9 10 -13 16 -10 5 3 4 -3 -3 -15 -14
-21 -32 -9 -22 15 3 9 -2 12 -16 9 -18 -3 -20 -1 -11 16 6 10 16 19 23 18 9 0
9 -2 0 -6z m32 -2 c-3 -5 2 -12 10 -14 12 -4 12 -5 -1 -3 -19 1 -32 26 -14 26
6 0 9 -4 5 -9z m49 -56 c-4 -8 -11 -15 -16 -15 -6 0 -5 6 2 15 7 8 14 15 16
15 2 0 1 -7 -2 -15z m16 -20 c0 -8 -4 -15 -10 -15 -5 0 -7 7 -4 15 4 8 8 15
10 15 2 0 4 -7 4 -15z m12 -32 c-6 -3 -10 -9 -6 -14 3 -5 0 -9 -5 -9 -6 0 -11
4 -11 8 0 12 23 32 29 25 3 -3 0 -8 -7 -10z m63 -31 c-3 -3 -11 0 -18 7 -9 10
-8 11 6 5 10 -3 15 -9 12 -12z m-35 -3 c0 -5 -5 -7 -12 -3 -8 5 -9 1 -4 -12 5
-14 4 -16 -5 -7 -6 6 -8 16 -5 22 9 14 26 14 26 0z m23 -16 c-7 -2 -13 -9 -13
-14 0 -6 5 -7 10 -4 6 3 13 -1 16 -9 3 -9 10 -13 16 -10 5 3 4 -3 -3 -15 -14
-21 -32 -9 -22 15 3 9 -2 12 -16 9 -18 -3 -20 -1 -11 16 6 10 16 19 23 18 9 0
9 -2 0 -6z m132 -113 c3 -6 -1 -7 -9 -4 -9 4 -16 1 -16 -6 0 -8 9 -11 25 -8
13 3 22 1 19 -3 -7 -12 -41 -11 -49 1 -7 12 2 30 15 30 5 0 12 -4 15 -10z m33
-42 c-3 -7 4 -21 13 -32 18 -19 16 -42 -2 -30 -5 3 -7 10 -4 15 4 5 2 9 -2 9
-5 0 -14 9 -21 21 -8 12 -9 18 -3 14 6 -3 11 -1 11 4 0 6 3 11 6 11 3 0 4 -6
2 -12z m52 -38 c0 -5 -2 -10 -4 -10 -3 0 -8 5 -11 10 -3 6 -1 10 4 10 6 0 11
-4 11 -10z m12 -32 c-7 -7 -12 -8 -12 -2 0 14 12 26 19 19 2 -3 -1 -11 -7 -17z
m34 -25 c-3 -4 -6 0 -6 7 0 10 -4 9 -17 -3 -15 -13 -22 -13 -42 -3 -20 11 -21
14 -7 19 10 4 15 3 12 -2 -3 -5 1 -12 9 -15 9 -3 20 3 27 14 11 17 14 17 21 4
5 -9 6 -18 3 -21z m29 -3 c3 -5 1 -10 -4 -10 -6 0 -11 5 -11 10 0 6 2 10 4 10
3 0 8 -4 11 -10z m-20 -20 c3 -6 -1 -7 -10 -4 -8 4 -22 1 -30 -6 -9 -8 -15 -8
-15 -2 0 19 45 29 55 12z m40 -10 c3 -5 1 -10 -4 -10 -6 0 -11 5 -11 10 0 6 2
10 4 10 3 0 8 -4 11 -10z m-17 -22 c8 -8 15 -8 26 1 13 11 13 9 3 -12 -11 -24
-12 -24 -25 -6 -8 11 -19 16 -29 12 -11 -4 -14 -3 -9 5 9 15 19 15 34 0z m-3
-28 c3 -6 -1 -7 -9 -4 -18 7 -21 14 -7 14 6 0 13 -4 16 -10z m109 -70 c-13
-25 -19 -28 -34 -20 -20 11 -36 30 -25 30 4 0 14 -7 23 -16 13 -14 17 -14 20
-3 5 14 22 39 27 39 2 0 -3 -13 -11 -30z m6 -40 c0 -5 -5 -10 -11 -10 -5 0 -7
5 -4 10 3 6 8 10 11 10 2 0 4 -4 4 -10z m89 -50 c0 -10 -3 -8 -9 5 -12 27 -12
43 0 25 5 -8 9 -22 9 -30z m94 -108 c-2 -7 4 -12 13 -12 8 0 12 4 9 10 -4 6 1
7 11 3 15 -6 15 -7 -1 -15 -19 -11 -49 -2 -40 12 3 5 -1 10 -9 10 -19 0 -20
-11 -3 -30 6 -8 2 -6 -11 5 -17 14 -19 21 -10 27 18 11 44 5 41 -10z m71 -86
c-3 -9 -10 -16 -15 -16 -5 0 -4 9 3 20 14 22 21 20 12 -4z m43 18 c-3 -3 -12
-4 -19 -1 -8 3 -5 6 6 6 11 1 17 -2 13 -5z m-21 -59 c9 -8 11 -15 6 -15 -5 0
-15 7 -22 15 -7 8 -9 15 -6 15 4 0 14 -7 22 -15z m79 -5 c-3 -5 -1 -10 4 -10
12 0 15 -40 4 -41 -5 0 -15 -2 -24 -4 -12 -2 -15 3 -11 19 5 21 21 46 29 46 2
0 1 -4 -2 -10z m50 -48 c-3 -3 -11 0 -18 7 -9 10 -8 11 6 5 10 -3 15 -9 12
-12z m-17 -24 c-6 -16 -38 -23 -38 -9 0 6 7 7 17 4 11 -4 14 -3 9 5 -4 7 -2
12 4 12 7 0 10 -6 8 -12z m64 -22 c10 5 10 4 1 -6 -6 -7 -9 -20 -7 -29 3 -9
-1 -6 -7 7 -7 12 -16 22 -21 22 -4 0 -8 5 -8 11 0 8 4 8 15 -1 8 -6 20 -8 27
-4z m-37 -18 c6 -5 0 -7 -12 -5 -12 2 -26 7 -30 12 -5 4 -2 5 5 1 7 -4 12 -2
12 5 0 7 3 8 8 3 4 -5 12 -12 17 -16z m69 -7 c3 -5 -1 -14 -9 -21 -8 -7 -15
-17 -15 -23 0 -5 8 -3 18 6 10 10 23 17 28 17 5 0 2 -5 -6 -10 -8 -5 -15 -17
-15 -26 0 -10 -6 -18 -13 -20 -7 -1 -8 0 -2 3 18 9 11 22 -10 18 -17 -3 -19
-1 -10 15 6 10 15 22 21 26 8 4 7 9 -2 15 -10 6 -10 9 -2 9 6 0 14 -4 17 -9z
m-50 -27 c3 -8 2 -12 -4 -9 -6 3 -10 10 -10 16 0 14 7 11 14 -7z m94 -26 c15
-15 15 -28 1 -28 -5 0 -8 4 -4 9 3 6 -3 14 -12 20 -10 6 -13 11 -7 11 5 0 15
-5 22 -12z m-10 -37 c11 -6 9 -9 -5 -13 -12 -3 -20 0 -20 8 0 16 6 17 25 5z
m60 -71 c7 -12 8 -20 2 -20 -5 0 -10 5 -10 11 0 5 -4 8 -8 5 -5 -3 -9 1 -9 9
0 21 10 19 25 -5z m32 0 c0 -5 -2 -10 -4 -10 -3 0 -8 5 -11 10 -3 6 -1 10 4
10 6 0 11 -4 11 -10z m37 -7 c-4 -3 1 -12 10 -18 14 -10 15 -16 5 -27 -6 -8
-9 -18 -5 -21 3 -4 1 -7 -6 -7 -7 0 -11 7 -8 15 4 8 2 17 -4 20 -5 4 -6 11 -3
17 5 8 1 9 -12 5 -18 -7 -18 -7 0 8 20 15 35 21 23 8z m-31 -38 c10 -8 15 -14
9 -14 -5 0 -19 6 -29 14 -11 8 -15 15 -10 15 6 0 19 -7 30 -15z m74 -21 c-1
-4 4 -10 11 -15 8 -4 11 -10 9 -13 -12 -11 -40 22 -33 40 6 16 17 6 13 -12z
m-9 -38 c5 3 9 0 9 -6 0 -15 -23 -7 -26 8 -1 7 0 8 3 2 2 -5 9 -8 14 -4z m97
-35 c11 -7 11 -9 -1 -14 -16 -6 -27 0 -27 15 0 10 11 10 28 -1z m-42 -10 c-4
-5 0 -11 6 -14 10 -3 10 -8 -1 -18 -9 -9 -11 -10 -7 -1 4 7 0 15 -9 18 -13 6
-14 8 -3 15 17 11 20 11 14 0z m80 -39 c6 -12 14 -19 19 -14 5 4 5 2 1 -5 -4
-7 2 -18 14 -25 11 -7 20 -17 20 -22 0 -4 -7 -3 -15 4 -12 10 -18 10 -30 0 -9
-8 -15 -8 -15 -2 0 6 5 12 11 14 12 4 -12 56 -33 70 -10 8 -10 9 2 5 8 -2 20
-13 26 -25z m-55 -9 c-12 -20 -14 -14 -5 12 4 9 9 14 11 11 3 -2 0 -13 -6 -23z
m41 -42 c-6 -14 -7 -14 -10 2 -2 9 -8 17 -13 17 -5 0 -9 5 -9 10 0 6 7 6 19
-2 12 -7 17 -18 13 -27z m48 -32 c0 -5 -4 -7 -10 -4 -5 3 -10 1 -10 -6 0 -7
-3 -10 -6 -6 -8 7 4 27 17 27 5 0 9 -5 9 -11z m110 -91 c0 -5 10 -3 23 3 20
11 21 11 8 -4 -19 -24 -25 -22 -55 23 -33 50 -34 65 -1 20 14 -19 25 -38 25
-42z m-64 53 c-4 -5 0 -11 6 -14 10 -3 10 -8 -1 -18 -9 -9 -11 -10 -7 -1 4 7
0 15 -9 18 -13 6 -14 8 -3 15 17 11 20 11 14 0z m34 -51 c0 -5 -4 -10 -10 -10
-5 0 -10 5 -10 10 0 6 5 10 10 10 6 0 10 -4 10 -10z m20 -31 c0 -5 5 -7 12 -3
7 4 8 3 4 -5 -6 -9 -11 -9 -22 0 -17 14 -18 19 -4 19 6 0 10 -5 10 -11z m85
-12 c25 -17 31 -27 24 -37 -7 -13 -9 -12 -9 2 0 9 -15 25 -32 37 -18 11 -29
21 -25 21 4 0 23 -10 42 -23z m-30 -17 c0 -7 -6 -14 -13 -16 -7 -1 -8 0 -2 3
17 8 11 23 -7 16 -11 -4 -14 -3 -9 6 10 15 31 9 31 -9z m24 -26 c-6 -8 -15
-12 -18 -8 -3 4 0 9 7 11 6 3 9 10 6 15 -4 7 -2 8 5 4 9 -6 9 -11 0 -22z m91
-31 c0 -2 -8 1 -18 6 -19 10 -45 1 -42 -15 1 -5 -3 -9 -10 -10 -6 -2 -7 -1 0
3 16 8 1 23 -17 16 -11 -4 -14 -3 -9 6 4 6 13 11 19 10 26 -3 38 2 31 12 -3 6
5 3 20 -6 14 -10 26 -19 26 -22z m-15 -13 c3 -5 2 -10 -4 -10 -5 0 -13 5 -16
10 -3 6 -2 10 4 10 5 0 13 -4 16 -10z m-5 -26 c0 -2 -7 -4 -15 -4 -8 0 -15 4
-15 10 0 5 7 7 15 4 8 -4 15 -8 15 -10z m31 -42 c-6 -2 -8 -9 -5 -14 4 -7 2
-8 -4 -4 -9 5 -8 12 1 27 7 12 13 15 16 7 2 -7 -1 -14 -8 -16z m47 19 c11 -6
10 -10 -4 -15 -9 -3 -19 -4 -22 -1 -3 3 1 5 9 5 11 0 11 2 -1 10 -8 5 -10 10
-5 10 6 0 16 -4 23 -9z m9 -35 c-6 -14 33 -38 71 -45 4 0 13 -15 21 -32 16
-36 1 -64 -21 -40 -11 11 -10 13 5 8 21 -8 22 11 1 38 -17 22 -33 26 -52 12
-9 -7 -17 -6 -25 3 -10 10 -9 12 5 7 28 -10 30 9 3 21 -25 12 -31 23 -18 35
11 11 15 8 10 -7z m-40 -18 c-3 -8 -6 -5 -6 6 -1 11 2 17 5 13 3 -3 4 -12 1
-19z m97 -59 c-2 -4 0 -9 5 -11 5 -1 2 -10 -7 -18 -14 -13 -15 -12 -9 3 3 9 2
19 -3 22 -6 4 -10 1 -10 -6 0 -7 -3 -10 -6 -6 -9 9 3 24 20 24 8 0 13 -4 10
-8z m96 -49 c8 -5 11 -10 5 -11 -5 0 -1 -4 10 -9 16 -7 17 -9 3 -9 -9 -1 -21
6 -26 15 -7 13 -13 14 -31 5 -12 -7 -19 -16 -16 -22 10 -16 -2 -10 -16 9 -7 9
-10 14 -5 10 5 -4 18 -1 30 7 24 18 26 18 46 5z m-15 -31 c11 -16 1 -19 -13
-3 -7 8 -8 14 -3 14 5 0 13 -5 16 -11z m-11 -25 c3 -8 2 -12 -4 -9 -6 3 -10
10 -10 16 0 14 7 11 14 -7z m32 -10 c-4 -9 -9 -15 -11 -12 -3 3 -3 13 1 22 4
9 9 15 11 12 3 -3 3 -13 -1 -22z m43 -1 c1 5 6 5 11 2 6 -4 8 -11 4 -16 -8
-14 -34 9 -33 30 0 12 2 11 9 -4 5 -11 9 -16 9 -12z m-10 -27 c9 -10 9 -16 1
-21 -13 -8 -42 14 -34 26 8 13 20 11 33 -5z m60 -9 c0 -9 -2 -8 -6 1 -2 6 -10
9 -15 6 -7 -4 -8 -2 -4 5 9 13 26 5 25 -12z m8 -20 c17 6 27 -17 13 -30 -10
-9 -12 -8 -6 6 4 13 2 17 -6 14 -7 -2 -21 0 -30 5 -25 12 -22 -4 2 -20 12 -7
18 -17 15 -22 -4 -6 -11 -8 -16 -4 -6 3 -8 8 -5 12 3 3 -2 10 -11 17 -21 15
-8 38 15 26 9 -4 22 -6 29 -4z m34 -40 c-10 -9 -11 -8 -5 6 3 10 9 15 12 12 3
-3 0 -11 -7 -18z m43 -26 c-4 -3 -9 0 -11 7 -3 6 -10 9 -15 6 -7 -4 -8 -2 -4
5 6 9 11 9 22 0 8 -6 12 -15 8 -18z m-54 2 c0 5 10 1 21 -7 12 -8 27 -12 34
-10 23 9 27 -16 6 -42 -12 -15 -21 -22 -21 -17 0 5 5 14 11 20 8 8 4 15 -12
26 -12 9 -26 14 -30 11 -4 -2 -10 0 -14 5 -3 6 -13 7 -22 4 -15 -6 -16 -5 -3
9 11 11 17 12 22 4 4 -6 8 -7 8 -3z m35 -43 c8 -13 -5 -13 -25 0 -13 8 -13 10
2 10 9 0 20 -4 23 -10z m49 -24 c-9 -15 -19 -25 -21 -22 -5 5 30 56 35 51 2
-2 -4 -15 -14 -29z m29 -1 c-3 -9 -8 -14 -10 -11 -3 3 -2 9 2 15 9 16 15 13 8
-4z m-6 -41 c12 -12 13 -18 4 -27 -10 -9 -12 -9 -9 3 2 8 -3 15 -9 16 -23 3
-24 4 -18 14 8 14 14 13 32 -6z m50 -1 c10 -10 14 -15 8 -11 -6 4 -22 12 -36
17 -15 6 -18 10 -8 10 9 1 25 -7 36 -16z m3 -77 c-1 -6 -6 -1 -13 12 -7 12
-16 20 -19 16 -4 -3 -4 4 -1 15 5 21 6 21 19 -5 8 -14 14 -31 14 -38z m15 36
c-3 -3 -11 0 -18 7 -9 10 -8 11 6 5 10 -3 15 -9 12 -12z m34 4 c9 -11 9 -16 0
-22 -8 -4 -9 -3 -5 4 4 7 2 12 -3 12 -6 0 -11 5 -11 10 0 14 5 13 19 -4z m7
-35 c12 10 17 10 27 0 9 -10 8 -11 -8 -5 -18 7 -18 6 -6 -9 9 -11 10 -17 2
-17 -6 0 -11 5 -11 12 0 6 -3 8 -7 5 -8 -9 -33 12 -33 27 0 6 5 3 11 -7 9 -15
13 -16 25 -6z m-36 -21 c0 -5 -5 -10 -11 -10 -5 0 -7 5 -4 10 3 6 8 10 11 10
2 0 4 -4 4 -10z m35 -20 c3 -5 2 -10 -4 -10 -5 0 -13 5 -16 10 -3 6 -2 10 4
10 5 0 13 -4 16 -10z m105 -54 c0 -6 -11 4 -23 22 -13 17 -28 28 -32 24 -5 -4
-5 -1 0 7 6 11 13 8 32 -15 12 -16 23 -33 23 -38z m-86 18 c3 -8 2 -12 -4 -9
-6 3 -10 10 -10 16 0 14 7 11 14 -7z m43 -1 c10 -10 14 -15 9 -10 -18 13 -29
7 -16 -8 9 -10 9 -15 1 -15 -10 0 -13 7 -10 26 0 4 -5 11 -13 15 -8 5 -9 9 -2
9 7 0 20 -8 31 -17z m54 -36 c-10 -9 -11 -8 -5 6 3 10 9 15 12 12 3 -3 0 -11
-7 -18z m-21 -13 c0 -15 2 -15 25 0 24 16 25 15 48 -19 13 -19 27 -32 30 -28
4 3 7 1 7 -5 0 -22 -17 -12 -41 22 -16 24 -27 32 -35 25 -23 -19 -50 -18 -50
2 0 10 4 19 8 19 4 0 8 -7 8 -16z m61 -41 c10 -11 10 -14 2 -9 -7 4 -13 2 -13
-3 0 -6 -5 -11 -11 -11 -8 0 -8 5 1 15 15 18 -1 20 -18 3 -8 -8 -12 -9 -12 -1
0 10 14 20 31 22 4 1 13 -7 20 -16z m24 -34 c11 -16 1 -19 -13 -3 -7 8 -8 14
-3 14 5 0 13 -5 16 -11z m54 -3 c9 -11 9 -16 0 -22 -8 -4 -9 -3 -5 4 4 7 2 12
-3 12 -6 0 -11 5 -11 10 0 14 5 13 19 -4z m-74 -14 c-3 -3 -11 0 -18 7 -9 10
-8 11 6 5 10 -3 15 -9 12 -12z m48 -43 c-8 -8 -13 -7 -18 2 -5 8 -4 10 3 5 7
-4 12 -1 12 9 0 9 -4 13 -10 10 -6 -4 -7 1 -3 11 6 16 8 15 16 -4 7 -15 7 -26
0 -33z m60 25 c8 -8 -3 -34 -15 -34 -6 0 -5 6 2 15 15 18 0 20 -20 3 -12 -11
-12 -10 -1 5 14 18 24 21 34 11z m-33 -44 c0 -5 -4 -10 -10 -10 -5 0 -10 5
-10 10 0 6 5 10 10 10 6 0 10 -4 10 -10z m60 1 c0 -6 -5 -13 -10 -16 -6 -4 -4
-12 5 -21 16 -17 12 -34 -8 -34 -7 0 -6 4 3 10 14 9 7 14 -13 11 -5 -1 -6 3
-2 9 3 5 2 10 -4 10 -5 0 -12 -6 -15 -12 -2 -7 -4 -3 -2 9 1 12 6 26 11 30 4
5 5 2 0 -6 -5 -9 -3 -12 6 -9 8 3 13 11 12 17 -2 6 2 11 7 11 6 0 10 -4 10 -9z
m90 -75 c0 -2 -6 -9 -14 -15 -11 -9 -16 -9 -22 0 -4 8 -3 9 4 5 7 -4 12 -2 12
3 0 6 5 11 10 11 6 0 10 -2 10 -4z m-45 -26 c7 -12 -2 -12 -30 0 -19 8 -19 9
2 9 12 1 25 -3 28 -9z m38 -25 c6 -15 -10 -32 -20 -21 -4 3 -1 6 6 6 7 0 10 4
6 10 -3 5 -13 7 -23 4 -14 -5 -15 -4 -2 5 20 14 27 14 33 -4z m71 -26 c-2 -4
2 -9 8 -12 7 -3 3 -4 -9 -4 -12 1 -20 4 -17 8 2 4 -2 9 -8 12 -7 3 -3 4 9 4
12 -1 20 -4 17 -8z m-37 -25 c-3 -3 -12 -4 -19 -1 -8 3 -5 6 6 6 11 1 17 -2
13 -5z m58 -21 c-14 -27 -40 -39 -50 -23 -3 5 4 7 15 5 11 -2 20 1 20 9 0 10
19 36 26 36 2 0 -3 -12 -11 -27z m-25 7 c0 -5 -4 -10 -10 -10 -5 0 -10 5 -10
10 0 6 5 10 10 10 6 0 10 -4 10 -10z m42 -30 c-9 -16 -20 -30 -24 -30 -4 0 1
13 10 30 9 16 20 30 24 30 4 0 -1 -13 -10 -30z m55 -17 c19 -18 22 -24 10 -20
-10 4 -21 7 -23 7 -3 0 -2 5 2 11 4 8 -1 9 -17 5 -13 -3 -18 -3 -11 0 6 3 10
10 6 15 -10 17 5 9 33 -18z m-27 -23 c8 -5 12 -11 9 -14 -3 -3 -14 1 -25 9
-21 16 -8 20 16 5z m28 -27 c-2 -9 -11 -17 -21 -19 -9 -1 -15 2 -11 7 3 5 10
7 15 4 5 -4 9 1 9 9 0 9 3 16 6 16 3 0 4 -7 2 -17z m47 3 c12 -12 12 -16 0
-26 -8 -7 -15 -17 -15 -23 0 -5 8 -3 18 6 15 13 20 14 36 1 11 -7 17 -16 14
-19 -3 -3 -11 1 -18 9 -11 14 -14 14 -27 0 -21 -21 -42 -2 -23 21 10 12 10 18
0 30 -16 19 -3 20 15 1z m-34 -33 c-12 -20 -14 -14 -5 12 4 9 9 14 11 11 3 -2
0 -13 -6 -23z m56 -44 c-9 -6 -14 -16 -11 -22 5 -8 2 -7 -7 1 -12 11 -12 14 1
22 8 5 20 10 25 10 6 -1 2 -5 -8 -11z m43 -4 c-7 -8 -20 -15 -29 -15 -11 0 -8
5 9 14 33 19 35 19 20 1z m49 -58 c1 -5 -3 -5 -9 -2 -5 3 -10 16 -9 28 0 21 1
21 9 2 5 -11 9 -24 9 -28z m-82 18 c0 -8 -4 -12 -9 -9 -5 3 -6 10 -3 15 9 13
12 11 12 -6z m33 5 c0 -5 -4 -10 -10 -10 -5 0 -10 5 -10 10 0 6 5 10 10 10 6
0 10 -4 10 -10z m7 -42 c-3 -8 -6 -5 -6 6 -1 11 2 17 5 13 3 -3 4 -12 1 -19z
m50 -5 c-4 -3 1 -12 11 -20 15 -13 15 -13 -5 -3 -14 6 -23 7 -23 1 0 -5 6 -12
13 -14 9 -4 9 -6 0 -6 -19 -1 -26 18 -13 34 7 8 15 15 18 15 3 0 2 -3 -1 -7z
m47 -25 c-5 -8 -1 -9 12 -4 14 5 16 4 7 -5 -6 -6 -16 -8 -22 -5 -14 9 -14 26
0 26 5 0 7 -5 3 -12z m-4 -28 c13 -8 13 -10 -2 -10 -9 0 -20 5 -23 10 -8 13 5
13 25 0z m37 -7 c-4 -25 -16 -43 -30 -43 -8 0 -8 3 1 9 8 4 14 12 14 17 1 13
9 34 14 34 2 0 3 -8 1 -17z m33 -33 c0 -5 7 -10 15 -10 8 0 15 -5 15 -11 0 -5
6 -7 13 -3 6 4 5 -1 -4 -11 -14 -15 -20 -15 -40 -4 -13 7 -27 12 -31 11 -5 -1
-8 3 -8 8 0 14 11 12 34 -5 33 -25 43 -16 11 10 -16 13 -24 24 -17 25 6 0 12
-4 12 -10z m75 -60 c3 -6 -3 -22 -14 -36 -12 -15 -21 -22 -21 -17 0 5 5 14 11
20 8 8 8 13 0 17 -6 4 -11 11 -11 17 0 12 27 12 35 -1z m-41 -29 c-4 -3 -9 0
-11 7 -3 6 -10 9 -15 6 -7 -4 -8 -2 -4 5 6 9 11 9 22 0 8 -6 12 -15 8 -18z
m63 -54 c-3 -11 -23 -7 -19 4 1 5 -2 9 -8 9 -5 0 -10 5 -10 10 0 6 8 5 20 -2
11 -7 19 -17 17 -21z m60 7 c2 -5 -6 -15 -18 -22 -12 -8 -18 -9 -15 -4 3 6 3
12 -1 15 -5 2 -3 2 4 1 16 -4 26 13 13 19 -6 3 -5 4 2 3 6 -1 13 -7 15 -12z
m16 -29 c-3 -9 -8 -14 -10 -11 -3 3 -2 9 2 15 9 16 15 13 8 -4z m-13 -38 c0
-5 -4 -5 -10 -2 -5 3 -10 14 -10 23 0 15 2 15 10 2 5 -8 10 -19 10 -23z m35
24 c-3 -5 2 -12 10 -14 12 -4 12 -5 -1 -3 -19 1 -32 26 -14 26 6 0 9 -4 5 -9z
m-24 -48 c-12 -20 -14 -14 -5 12 4 9 9 14 11 11 3 -2 0 -13 -6 -23z m77 1 c4
-4 0 -5 -9 -1 -9 3 -26 -1 -38 -9 -12 -9 -21 -11 -21 -5 0 6 5 11 11 11 5 0 8
4 5 9 -7 10 43 6 52 -5z m-28 -49 c-10 -12 -10 -15 0 -15 8 0 11 -3 7 -6 -14
-15 -24 7 -14 31 7 13 14 20 15 14 2 -5 -2 -16 -8 -24z m97 -22 c3 -7 -6 -17
-18 -23 -12 -7 -19 -8 -15 -2 3 6 0 13 -6 16 -7 3 -3 3 10 0 22 -5 31 10 12
19 -6 3 -5 4 2 3 6 -1 13 -7 15 -13z m-12 -43 c-3 -5 -1 -10 4 -10 6 0 11 -5
11 -10 0 -6 -8 -5 -20 2 -14 9 -16 14 -7 20 16 10 19 10 12 -2z m33 -44 c-7
-8 -15 -12 -17 -11 -5 6 10 25 20 25 5 0 4 -6 -3 -14z m42 0 c0 -21 -20 -30
-33 -16 -9 10 -8 12 7 6 14 -5 17 -2 12 9 -3 8 -1 15 4 15 6 0 10 -6 10 -14z
m31 -20 c-8 -10 -9 -16 -1 -21 5 -3 10 -1 10 5 0 6 5 8 11 4 8 -4 7 -9 -2 -14
-7 -5 -20 -3 -30 3 -16 10 -16 12 -1 24 22 16 27 16 13 -1z m-12 -39 c8 -10 7
-14 -4 -14 -8 0 -12 4 -9 8 2 4 -6 10 -18 12 -22 4 -22 4 -2 6 12 0 27 -5 33
-12z m51 -6 c-13 -25 -13 -31 0 -31 6 0 10 7 10 15 0 8 5 15 10 15 7 0 7 -6 0
-20 -14 -26 -26 -25 -41 1 -6 12 -7 19 -1 15 5 -3 12 1 16 9 3 8 8 15 11 15 3
0 1 -9 -5 -19z m-30 -27 c0 -8 -19 -13 -24 -6 -3 5 1 9 9 9 8 0 15 -2 15 -3z
m25 -32 c-3 -3 -11 0 -18 7 -9 10 -8 11 6 5 10 -3 15 -9 12 -12z m35 -12 c0
-5 6 -10 14 -10 17 0 29 -27 15 -36 -6 -3 -13 -3 -16 0 -4 3 -1 6 6 6 7 0 9 5
6 10 -4 6 -10 8 -14 6 -4 -3 -12 4 -19 15 -7 11 -8 19 -2 19 5 0 10 -4 10 -10z
m73 -34 c-4 -6 1 -6 13 -2 15 6 16 5 7 -5 -16 -16 -44 6 -36 28 5 11 7 12 14
2 4 -7 5 -17 2 -23z m-21 -25 c-10 -6 -8 -10 9 -14 13 -4 20 -9 17 -12 -9 -10
-49 15 -43 26 4 5 12 9 18 9 8 0 8 -3 -1 -9z m68 0 c0 -14 -29 -21 -36 -9 -4
7 -3 8 4 4 7 -4 12 -2 12 3 0 6 5 11 10 11 6 0 10 -4 10 -9z m26 -23 c4 -6 3
-8 -3 -5 -6 4 -14 0 -17 -9 -9 -23 3 -32 15 -14 9 13 10 13 7 1 -7 -24 -26
-24 -38 0 -7 12 -8 19 -2 15 5 -3 12 1 16 9 7 18 12 19 22 3z m-51 -28 c3 -6
-1 -7 -9 -4 -18 7 -21 14 -7 14 6 0 13 -4 16 -10z m25 -30 c8 -5 11 -10 5 -10
-5 0 -17 5 -25 10 -8 5 -10 10 -5 10 6 0 17 -5 25 -10z m68 1 c11 -7 10 -9 -3
-14 -9 -4 -13 -3 -10 2 3 5 -3 12 -12 14 -13 3 -14 5 -3 6 8 0 21 -3 28 -8z
m-20 -36 c6 -14 10 -25 8 -25 -2 0 -11 11 -20 25 -9 14 -13 25 -8 25 5 0 14
-11 20 -25z m85 -25 c-2 -3 -13 6 -23 20 -11 14 -20 22 -20 18 0 -3 -3 -14 -7
-24 -4 -12 -3 -15 5 -10 7 4 12 2 12 -3 0 -19 -19 -12 -31 10 -6 12 -7 19 -1
15 5 -3 13 2 16 11 6 15 10 14 30 -8 13 -13 21 -26 19 -29z m24 -42 c-2 -7 3
-17 13 -23 15 -9 15 -11 -2 -27 -10 -10 -18 -14 -18 -9 0 6 5 13 11 16 6 5 4
11 -7 19 -9 7 -14 18 -10 24 10 16 19 15 13 0z m53 -23 c7 -8 9 -15 4 -15 -5
0 -1 -7 9 -14 16 -12 16 -14 2 -20 -9 -3 -13 -2 -10 4 3 6 1 10 -5 10 -7 0
-10 7 -6 15 3 8 -2 19 -12 24 -9 6 -12 11 -6 11 6 0 17 -7 24 -15z m-70 -15
c0 -5 -2 -10 -4 -10 -3 0 -8 5 -11 10 -3 6 -1 10 4 10 6 0 11 -4 11 -10z m52
-52 c-7 -7 -12 -8 -12 -2 0 14 12 26 19 19 2 -3 -1 -11 -7 -17z m75 -19 c-15
-24 -24 -24 -38 2 -6 12 -7 19 -1 15 5 -3 13 1 16 10 5 13 9 14 21 4 11 -9 12
-16 2 -31z m-52 1 c3 -5 1 -10 -4 -10 -6 0 -11 5 -11 10 0 6 2 10 4 10 3 0 8
-4 11 -10z m85 -34 c-7 -7 -14 -6 -21 1 -9 9 -7 12 9 10 14 -1 18 -5 12 -11z
m34 -17 c-3 -5 -10 -7 -15 -4 -5 4 -9 2 -9 -3 0 -5 8 -13 18 -18 18 -9 18 -10
0 -26 -10 -10 -18 -14 -18 -9 0 6 5 13 11 16 6 5 4 12 -8 20 -14 11 -15 15 -4
29 14 16 36 12 25 -5z m-50 -20 c-3 -5 0 -9 5 -9 6 0 11 -5 11 -11 0 -8 -5 -8
-15 1 -8 7 -12 16 -9 21 3 5 0 9 -5 9 -6 0 -11 5 -11 11 0 8 5 8 15 -1 8 -7
12 -16 9 -21z m89 -26 c-4 -11 -3 -14 5 -9 7 4 12 2 12 -4 0 -21 -25 -4 -26
18 -1 12 2 19 7 16 4 -2 5 -12 2 -21z m-21 -45 c-7 -7 -12 -8 -12 -2 0 14 12
26 19 19 2 -3 -1 -11 -7 -17z m74 4 c1 -7 0 -8 -3 -2 -6 13 -23 3 -19 -13 1
-7 1 -9 -1 -4 -3 4 -9 4 -15 1 -5 -3 -4 3 4 15 13 22 30 23 34 3z m-41 -41
c-6 -5 -25 10 -25 20 0 5 6 4 14 -3 8 -7 12 -15 11 -17z m55 10 c0 -5 10 -13
21 -16 16 -6 18 -9 8 -15 -7 -5 -17 -6 -21 -4 -4 3 -8 0 -8 -5 0 -6 -5 -11
-11 -11 -8 0 -8 5 1 15 10 12 10 18 0 30 -9 10 -9 15 -1 15 6 0 11 -4 11 -9z
m-20 -19 c0 -5 -7 -9 -15 -9 -8 0 -12 4 -9 9 3 4 9 8 15 8 5 0 9 -4 9 -8z m66
-38 c-4 -9 -2 -22 4 -29 15 -18 -5 -29 -27 -15 -15 9 -15 10 5 5 l24 -7 -19
28 c-10 16 -12 25 -5 21 6 -5 12 -4 12 2 0 6 3 11 6 11 3 0 3 -7 0 -16z m-31
-14 c3 -6 -1 -7 -9 -4 -18 7 -21 14 -7 14 6 0 13 -4 16 -10z m93 -29 c11 -7
10 -9 -3 -14 -9 -4 -13 -3 -10 2 3 5 -3 12 -12 14 -13 3 -14 5 -3 6 8 0 21 -3
28 -8z m-33 -21 c-3 -5 -11 -10 -16 -10 -6 0 -7 5 -4 10 3 6 11 10 16 10 6 0
7 -4 4 -10z m49 -22 c-6 -20 -5 -21 9 -9 9 7 14 18 10 24 -3 6 -1 7 5 3 9 -5
8 -12 -1 -26 -15 -25 -24 -25 -38 1 -8 15 -8 19 0 15 6 -4 11 -2 11 3 0 6 3
11 6 11 3 0 2 -10 -2 -22z m50 -36 c2 -4 -4 -13 -15 -20 -11 -7 -19 -8 -19 -2
0 5 5 10 11 10 5 0 7 5 4 10 -3 6 -2 10 4 10 5 0 12 -4 15 -8z m40 -23 c-3 -5
-10 -7 -15 -4 -5 4 -9 3 -9 -2 0 -4 15 -17 33 -28 45 -27 51 -29 42 -15 -6 9
-4 11 4 5 9 -5 10 -10 2 -18 -7 -7 -14 -7 -24 1 -8 7 -17 9 -21 5 -11 -11 -36
-12 -36 -1 0 6 7 8 15 5 8 -4 17 -2 20 3 4 6 2 10 -2 10 -5 0 -18 6 -28 14
-16 12 -17 16 -6 30 14 16 36 12 25 -5z m-34 -39 c0 -5 -2 -10 -4 -10 -3 0 -8
5 -11 10 -3 6 -1 10 4 10 6 0 11 -4 11 -10z m80 -47 c0 -3 -7 -3 -15 1 -8 3
-15 0 -15 -6 0 -6 -3 -9 -6 -5 -11 10 6 26 21 20 8 -3 15 -7 15 -10z m40 7 c0
-5 -4 -10 -10 -10 -5 0 -8 -6 -6 -12 1 -7 1 -10 -1 -5 -3 4 -9 4 -15 1 -5 -3
-4 3 4 15 14 22 28 28 28 11z m-1 -70 c5 0 13 -4 16 -10 3 -5 2 -10 -3 -10
-13 0 -72 52 -72 64 0 5 11 -3 25 -18 13 -14 28 -26 34 -26z m21 36 c0 -2 -7
-9 -15 -16 -13 -11 -14 -10 -9 4 5 14 24 23 24 12z m20 -26 c0 -5 -4 -10 -10
-10 -5 0 -10 5 -10 10 0 6 5 10 10 10 6 0 10 -4 10 -10z m45 -37 c6 -11 15
-18 22 -16 6 2 14 -1 18 -6 4 -7 -1 -8 -12 -4 -15 5 -16 3 -5 -8 6 -7 12 -17
12 -22 0 -5 -9 2 -20 16 -11 14 -20 30 -20 36 0 5 -8 15 -17 21 -12 8 -13 10
-3 7 8 -2 20 -13 25 -24z m-50 -2 c-3 -6 -11 -11 -16 -11 -5 0 -4 6 3 14 14
16 24 13 13 -3z m60 -62 c-4 -5 -12 -9 -18 -8 -9 0 -8 2 1 6 6 2 10 9 7 13 -3
5 -13 6 -22 3 -11 -4 -14 -3 -9 5 4 7 2 12 -3 12 -6 0 -11 5 -11 11 0 6 14 1
30 -11 17 -12 28 -26 25 -31z m47 -6 c-15 -6 -6 -23 11 -19 7 1 9 1 4 -1 -4
-3 -4 -10 0 -16 4 -7 -2 -5 -13 3 -10 8 -21 15 -23 17 -7 4 11 23 22 22 9 0 8
-2 -1 -6z m-24 -48 c-3 -3 -9 2 -12 12 -6 14 -5 15 5 6 7 -7 10 -15 7 -18z
m37 -13 c-3 -3 -11 0 -18 7 -9 10 -8 11 6 5 10 -3 15 -9 12 -12z m96 -33 c30
-32 36 -49 19 -49 -5 0 -9 3 -8 8 4 14 -23 52 -37 52 -7 0 -17 5 -20 10 -14
23 19 8 46 -21z m-15 -11 c4 -7 3 -8 -4 -4 -7 4 -12 2 -12 -3 0 -6 -5 -11 -11
-11 -8 0 -8 5 1 15 15 18 17 18 26 3z m2 -32 c-7 -8 -15 -12 -17 -11 -5 6 10
25 20 25 5 0 4 -6 -3 -14z m16 -36 c-6 -6 -10 -2 -11 12 -2 16 1 18 10 9 7 -7
8 -14 1 -21z m46 21 c0 -5 -7 -12 -16 -15 -14 -5 -15 -4 -4 9 14 17 20 19 20
6z m66 -43 c4 -7 3 -8 -4 -4 -7 4 -12 2 -12 -5 0 -7 -3 -10 -6 -6 -6 5 3 27
11 27 2 0 7 -5 11 -12z m-946 -32 c-10 -13 -40 -12 -40 1 0 3 7 3 15 0 8 -4
17 -2 20 3 4 6 9 10 12 10 3 0 0 -6 -7 -14z m-30 -26 c8 -5 12 -11 10 -14 -3
-2 -14 2 -24 10 -22 15 -10 19 14 4z m38 -50 c7 -11 11 -20 9 -20 -2 0 -12 9
-22 20 -10 11 -14 20 -9 20 5 0 15 -9 22 -20z m37 10 c-3 -5 -12 -10 -18 -10
-7 0 -6 4 3 10 19 12 23 12 15 0z m40 0 c3 -6 -1 -7 -9 -4 -18 7 -21 14 -7 14
6 0 13 -4 16 -10z m-9 -22 c5 -7 2 -9 -8 -5 -9 3 -22 0 -29 -6 -11 -10 -11 -9
0 6 16 20 27 22 37 5z m29 -7 c-3 -5 -1 -12 5 -16 5 -3 10 -12 10 -18 0 -7 -7
-3 -15 7 -13 17 -12 36 1 36 3 0 3 -4 -1 -9z m-43 -18 c-6 -2 -9 -10 -6 -15 4
-7 2 -8 -5 -4 -13 9 -5 26 12 25 9 0 8 -2 -1 -6z m36 -25 c10 -12 10 -18 1
-24 -7 -4 -9 -3 -5 4 3 6 2 13 -4 17 -5 3 -10 1 -10 -6 0 -7 -2 -10 -5 -7 -3
3 -3 13 1 22 4 9 7 16 8 14 1 -2 7 -10 14 -20z m58 -33 c-7 -18 5 -20 23 -2
11 10 12 9 7 -1 -4 -7 -2 -19 4 -27 9 -11 9 -15 1 -15 -6 0 -11 5 -11 10 0 6
-6 10 -14 10 -18 0 -29 16 -21 30 10 15 18 12 11 -5z m-16 -37 c0 -12 -6 -9
-26 13 -19 22 -19 22 4 8 12 -8 22 -17 22 -21z m35 -18 c3 -5 2 -10 -4 -10 -5
0 -13 5 -16 10 -3 6 -2 10 4 10 5 0 13 -4 16 -10z m83 -30 c9 7 9 7 2 -2 -15
-18 -12 -28 8 -21 14 5 15 4 4 -8 -11 -12 -16 -10 -32 11 -11 14 -20 30 -19
35 0 6 5 2 13 -7 8 -12 16 -14 24 -8z m-23 -35 c25 -25 50 -43 56 -40 5 4 9 1
9 -4 0 -6 -4 -11 -10 -11 -5 0 -12 0 -15 0 -3 0 -4 1 -3 3 3 5 -67 73 -73 70
-4 -2 -9 4 -13 12 -8 23 -2 19 49 -30z m81 -71 c-4 -9 -9 -15 -11 -12 -3 3 -3
13 1 22 4 9 9 15 11 12 3 -3 3 -13 -1 -22z m35 -34 c-1 -2 6 -7 16 -11 17 -7
17 -8 0 -8 -11 -1 -15 -6 -11 -13 4 -6 3 -8 -4 -4 -6 3 -9 15 -7 26 2 11 0 22
-6 25 -5 4 -9 1 -9 -4 0 -6 -5 -11 -10 -11 -6 0 -5 8 2 20 12 18 13 18 22 2 5
-9 9 -19 7 -22z m69 -17 c0 -4 -5 0 -11 9 -5 9 -15 16 -22 14 -6 -1 -9 -1 -5
1 4 2 4 12 1 21 -3 9 4 5 15 -10 12 -14 22 -30 22 -35z m-20 -7 c0 -8 -7 -16
-15 -20 -12 -4 -13 -2 -2 14 14 24 17 25 17 6z m40 -6 c0 -5 -5 -10 -11 -10
-5 0 -7 5 -4 10 3 6 8 10 11 10 2 0 4 -4 4 -10z m-826 -42 c-3 -4 -14 -6 -24
-5 -31 5 -32 13 -1 12 16 0 27 -3 25 -7z m15 -24 c-11 -13 -9 -15 17 -9 25 5
26 4 6 -4 -30 -14 -56 -4 -39 15 17 19 32 18 16 -2z m37 -39 c-11 -8 -22 -12
-25 -9 -6 6 19 24 34 24 6 -1 1 -7 -9 -15z m34 -16 c0 -5 -4 -8 -9 -4 -5 3
-12 1 -16 -5 -3 -5 -11 -10 -18 -10 -6 0 -2 7 9 15 23 17 34 19 34 4z m54 -41
c-3 -5 -15 -8 -27 -7 l-22 1 22 6 c18 6 20 10 12 22 -8 11 -12 12 -16 3 -2 -7
-9 -13 -15 -13 -6 0 -3 9 7 20 l19 21 12 -23 c7 -12 10 -26 8 -30z m-60 6 c3
-8 2 -12 -4 -9 -6 3 -10 10 -10 16 0 14 7 11 14 -7z m98 -86 c-9 -9 -15 -9
-24 1 -11 10 -10 11 5 5 14 -5 16 -2 11 12 -6 16 -5 17 7 7 10 -10 10 -16 1
-25z m19 -15 c-12 -20 -14 -14 -5 12 4 9 9 14 11 11 3 -2 0 -13 -6 -23z m23
-17 c-3 -9 -10 -16 -15 -16 -6 0 -5 9 1 21 13 24 24 20 14 -5z m21 -13 c-5
-23 -4 -25 9 -14 20 17 21 5 2 -14 -12 -12 -15 -12 -19 -1 -6 15 2 56 10 56 3
0 2 -12 -2 -27z m50 -3 c14 -27 14 -31 0 -36 -8 -3 -13 -10 -10 -14 3 -5 2
-11 -3 -14 -4 -2 -9 4 -9 15 -1 11 5 19 14 19 14 0 14 3 -1 25 -16 25 -20 35
-11 35 2 0 12 -14 20 -30z m72 -98 c-4 -2 -5 -8 -1 -13 3 -5 2 -9 -3 -8 -20 3
-27 -2 -13 -11 9 -6 10 -10 3 -10 -20 0 -24 17 -8 33 13 13 13 16 0 27 -8 7
-15 16 -15 21 0 4 10 -2 23 -14 12 -12 19 -24 14 -25z m33 -29 c-12 -8 -24
-12 -27 -9 -3 3 2 8 11 12 9 3 13 10 10 15 -3 5 2 6 11 3 14 -6 13 -9 -5 -21z
m30 -33 c6 -11 9 -20 8 -20 -2 0 -11 9 -21 20 -9 11 -13 20 -7 20 5 0 14 -9
20 -20z m-47 -3 c-4 -7 1 -8 13 -3 15 6 17 5 6 -5 -10 -11 -15 -10 -28 2 -13
14 -13 16 0 16 8 0 12 -5 9 -10z"/>
<path d="M1156 6725 c-3 -8 -1 -17 3 -20 5 -3 11 2 15 10 3 8 1 17 -3 20 -5 3
-11 -2 -15 -10z"/>
<path d="M3100 4760 c0 -19 3 -21 12 -12 9 9 9 15 0 24 -9 9 -12 7 -12 -12z"/>
<path d="M3405 4470 c3 -5 8 -10 11 -10 2 0 4 5 4 10 0 6 -5 10 -11 10 -5 0
-7 -4 -4 -10z"/>
<path d="M4115 3710 c3 -5 11 -10 16 -10 6 0 7 5 4 10 -3 6 -11 10 -16 10 -6
0 -7 -4 -4 -10z"/>
<path d="M4285 3590 c3 -5 8 -10 11 -10 2 0 4 5 4 10 0 6 -5 10 -11 10 -5 0
-7 -4 -4 -10z"/>
<path d="M5325 2550 c3 -5 8 -10 11 -10 2 0 4 5 4 10 0 6 -5 10 -11 10 -5 0
-7 -4 -4 -10z"/>
<path d="M6116 1764 c-9 -23 -2 -28 13 -10 7 8 8 17 3 20 -6 3 -13 -1 -16 -10z"/>
<path d="M3325 4573 c3 -8 5 -17 5 -19 0 -3 5 -2 10 1 16 10 12 32 -5 32 -10
0 -14 -6 -10 -14z"/>
<path d="M6060 886 c0 -7 7 -13 15 -13 8 0 15 4 15 8 0 4 -7 9 -15 13 -9 3
-15 0 -15 -8z"/>
<path d="M5866 266 c3 -8 13 -17 22 -21 13 -5 13 -2 -3 15 -21 24 -26 25 -19
6z"/>
</g>
</svg>
